<svg xmlns="http://www.w3.org/2000/svg" width="1429.321" height="734.132" viewBox="0 0 1429.321 734.132">
  <g id="Group_230" data-name="Group 230" transform="translate(4817.634 -535.335)">
    <line id="Line_1288" data-name="Line 1288" y2="14.09" transform="translate(-4289.461 681.078)" fill="none" stroke="#f46838" stroke-linecap="round" stroke-width="2"/>
    <line id="Line_1289" data-name="Line 1289" y2="14.09" transform="translate(-4293.911 682.561)" fill="none" stroke="#f46838" stroke-linecap="round" stroke-width="2"/>
    <line id="Line_1290" data-name="Line 1290" y2="14.09" transform="translate(-4299.102 683.303)" fill="none" stroke="#f46838" stroke-linecap="round" stroke-width="2"/>
    <line id="Line_1291" data-name="Line 1291" y2="14.09" transform="translate(-4303.551 684.786)" fill="none" stroke="#f46838" stroke-linecap="round" stroke-width="2"/>
    <line id="Line_1292" data-name="Line 1292" y2="14.09" transform="translate(-4308.001 686.269)" fill="none" stroke="#f46838" stroke-linecap="round" stroke-width="2"/>
    <line id="Line_1293" data-name="Line 1293" y2="14.09" transform="translate(-4312.45 687.752)" fill="none" stroke="#f46838" stroke-linecap="round" stroke-width="2"/>
    <line id="Line_1294" data-name="Line 1294" y2="17.056" transform="translate(-4267.956 776)" fill="none" stroke="#f46838" stroke-linecap="round" stroke-width="2"/>
    <line id="Line_1295" data-name="Line 1295" y2="17.132" transform="translate(-4272.405 776.742)" fill="none" stroke="#f46838" stroke-linecap="round" stroke-width="2"/>
    <line id="Line_1296" data-name="Line 1296" y2="17.056" transform="translate(-4262.765 775.258)" fill="none" stroke="#f46838" stroke-linecap="round" stroke-width="2"/>
    <line id="Line_1297" data-name="Line 1297" y2="17.132" transform="translate(-4277.596 777.483)" fill="none" stroke="#f46838" stroke-linecap="round" stroke-width="2"/>
    <line id="Line_1298" data-name="Line 1298" y2="17.132" transform="translate(-4282.787 778.225)" fill="none" stroke="#f46838" stroke-linecap="round" stroke-width="2"/>
    <line id="Line_1299" data-name="Line 1299" y2="17.132" transform="translate(-4287.978 778.966)" fill="none" stroke="#f46838" stroke-linecap="round" stroke-width="2"/>
    <line id="Line_1300" data-name="Line 1300" y2="17.132" transform="translate(-4293.169 780.45)" fill="none" stroke="#f46838" stroke-linecap="round" stroke-width="2"/>
    <line id="Line_1301" data-name="Line 1301" y2="17.132" transform="translate(-4298.36 781.191)" fill="none" stroke="#f46838" stroke-linecap="round" stroke-width="2"/>
    <line id="Line_1302" data-name="Line 1302" y2="17.132" transform="translate(-4303.551 782.674)" fill="none" stroke="#f46838" stroke-linecap="round" stroke-width="2"/>
    <line id="Line_1303" data-name="Line 1303" y2="17.132" transform="translate(-4309.484 782.674)" fill="none" stroke="#f46838" stroke-linecap="round" stroke-width="2"/>
    <line id="Line_1304" data-name="Line 1304" y2="17.132" transform="translate(-4276.854 896.136)" fill="none" stroke="#f46838" stroke-linecap="round" stroke-width="2"/>
    <line id="Line_1305" data-name="Line 1305" y2="17.132" transform="translate(-4271.664 895.394)" fill="none" stroke="#f46838" stroke-linecap="round" stroke-width="2"/>
    <line id="Line_1306" data-name="Line 1306" y2="17.132" transform="translate(-4266.472 894.653)" fill="none" stroke="#f46838" stroke-linecap="round" stroke-width="2"/>
    <line id="Line_1307" data-name="Line 1307" y2="17.132" transform="translate(-4282.787 896.136)" fill="none" stroke="#f46838" stroke-linecap="round" stroke-width="2"/>
    <line id="Line_1308" data-name="Line 1308" y2="17.132" transform="translate(-4288.72 897.619)" fill="none" stroke="#f46838" stroke-linecap="round" stroke-width="2"/>
    <line id="Line_1309" data-name="Line 1309" y2="17.132" transform="translate(-4294.652 897.619)" fill="none" stroke="#f46838" stroke-linecap="round" stroke-width="2"/>
    <line id="Line_1310" data-name="Line 1310" y2="17.132" transform="translate(-4300.585 898.361)" fill="none" stroke="#f46838" stroke-linecap="round" stroke-width="2"/>
    <path id="Path_454" data-name="Path 454" d="M8832.808-92.268" transform="translate(-13168.019 713.45)" fill="none" stroke="#707070" stroke-width="1"/>
    <path id="Path_457" data-name="Path 457" d="M8858.749,36.874l6.964-13.113L8904,16.6l9.8,8.508V71.663l-8.543,10.256-36.673,5.428-8.832-5.428Z" transform="translate(-13174.723 685.317)" fill="none" stroke="#f46838" stroke-width="1"/>
    <path id="Path_458" data-name="Path 458" d="M8867.5,179.432l6.251-19.713,35.115-5.384,7.786,15.726,1.342,57.552-5.521,7.481-33.25,3.966-10.3-2.1Z" transform="translate(-13176.984 649.723)" fill="none" stroke="#f46838" stroke-width="1"/>
    <path id="Path_460" data-name="Path 460" d="M8821.23-158.555l-5.648-2.815v-2.645h7.668V-186l23.27-3.2,8.978,3.2v8.047l-4.354,1.318,2.775,2.538v3.07l-2.775,1.255v5.758l5.774,2.645,24.179-4.446,11.008-9.579-5.568-1.241v-1.318l7.939-1.249v-2.078l-4.312-2.1V-186l4.313,2.617v-17.625l22.706-5.608,4.295,1.719v2.23l2.936,4.671v3.455h-2.936v3.23l2.936,2.118v11.242h6.491l4.614,6.925-9.53,1.255v8.4l4.916-2.645,4.614,1.317-2.953,4.142,2.953,3.208h-6.867l3.914,5.053,5,2.408-3.584,3.307-7.993-5.715-4.511-1.535v12.536h-20.838l-54.119,10.1-9.883,3.265-7.52,4.926V-130.2l-13.535-3.054,5.648-6.039v-5.286l5.34-5.715-5.34-3.756Z" transform="translate(-13163.567 743)" fill="none" stroke="#f46838" stroke-width="1"/>
    <path id="Path_461" data-name="Path 461" d="M8885.1-132.3l15.168,10.812v-14.889L8885.1-119.043Z" transform="translate(-13181.532 724.848)" fill="none" stroke="#f46838" stroke-width="1"/>
    <path id="Path_462" data-name="Path 462" d="M8913.385-135.352v11.419l12.5-14.392v12.939Z" transform="translate(-13188.842 725.352)" fill="none" stroke="#f46838" stroke-width="1"/>
    <path id="Path_478" data-name="Path 478" d="M9768.66,580.406v11.467l15.154,3.31,26.946-3.31V580.406Z" transform="translate(-13409.862 539.617)" fill="none" stroke="#f46838" stroke-width="1"/>
    <path id="Path_486" data-name="Path 486" d="M9888.536,385.171H9913.6l-1.18,9h-23.883Z" transform="translate(-13440.84 590.07)" fill="none" stroke="#f46838" stroke-width="1"/>
    <path id="Path_487" data-name="Path 487" d="M9894.745,385.171v8.654h9.542v-8.654h8.49v8.654l-7.382-7.848-11.8,7.848-7.763-7.848h7.763l9.777,7,8.816-7Z" transform="translate(-13440.141 590.07)" fill="none" stroke="#f46838" stroke-width="1"/>
    <path id="Path_490" data-name="Path 490" d="M9890.9,397.309l4.606,16.873-2.933,5.693-4.515-11.626v-10.94Z" transform="translate(-13440.718 586.933)" fill="#f46838"/>
    <path id="Path_501" data-name="Path 501" d="M9771.834,581.409v9.7h2.117v-9.7h2.931v9.7l2.4.812V581.409h1.539v10.516l2.073,1.33V581.409h1.611v11.845h1.836V580.771l1.143.638v11.845h1.583V580.771h1.459v12.483h1.923V581.409h1.823v11.845l1.768-.7v-11.15h1.646v10.516h1.714V580.771h1.355v10.342h1.471V580.771h.964v10.342h1.605V580.167l1.956.6v10.342h1.708V580.167h1.038v10.946h1.365V580.167l-39.023.6Z" transform="translate(-13410.682 539.679)" fill="none" stroke="#f46838" stroke-width="0.5"/>
    <line id="Line_1318" data-name="Line 1318" y2="5.191" transform="translate(-3541.207 1013.306)" fill="none" stroke="#f46838" stroke-linecap="round" stroke-width="1"/>
    <line id="Line_1319" data-name="Line 1319" y2="5.191" transform="translate(-3538.982 1012.564)" fill="none" stroke="#f46838" stroke-linecap="round" stroke-width="1"/>
    <line id="Line_1320" data-name="Line 1320" y2="5.191" transform="translate(-3541.207 1013.306)" fill="none" stroke="#f46838" stroke-linecap="round" stroke-width="1"/>
    <line id="Line_1321" data-name="Line 1321" y2="5.191" transform="translate(-3536.758 1012.564)" fill="none" stroke="#f46838" stroke-linecap="round" stroke-width="1"/>
    <line id="Line_1322" data-name="Line 1322" y2="5.191" transform="translate(-3538.982 1012.564)" fill="none" stroke="#f46838" stroke-linecap="round" stroke-width="1"/>
    <line id="Line_1323" data-name="Line 1323" y2="5.191" transform="translate(-3534.533 1012.564)" fill="none" stroke="#f46838" stroke-linecap="round" stroke-width="1"/>
    <line id="Line_1324" data-name="Line 1324" y2="5.191" transform="translate(-3534.533 1012.564)" fill="none" stroke="#f46838" stroke-linecap="round" stroke-width="1"/>
    <line id="Line_1325" data-name="Line 1325" y2="5.191" transform="translate(-3532.308 1012.564)" fill="none" stroke="#f46838" stroke-linecap="round" stroke-width="1"/>
    <line id="Line_1326" data-name="Line 1326" y2="5.191" transform="translate(-3530.083 1011.823)" fill="none" stroke="#f46838" stroke-linecap="round" stroke-width="1"/>
    <line id="Line_1327" data-name="Line 1327" y2="5.191" transform="translate(-3527.859 1011.823)" fill="none" stroke="#f46838" stroke-linecap="round" stroke-width="1"/>
    <path id="Path_505" data-name="Path 505" d="M8821.23-158.555l-5.648-2.815v-2.645h7.668V-186l23.27-3.2,8.978,3.2v8.047l-4.354,1.318,2.775,2.538v3.07l-2.775,1.255v5.758l5.774,2.645,24.179-4.446,11.008-9.579-5.568-1.241v-1.318l7.939-1.249v-2.078l-4.312-2.1V-186l4.313,2.617v-17.625l22.706-5.608,4.295,1.719v2.23l2.936,4.671v3.455h-2.936v3.23l2.936,2.118v11.242h6.491l4.614,6.925-9.53,1.255v8.4l4.916-2.645,4.614,1.317-2.953,4.142,2.953,3.208h-6.867l3.914,5.053,5,2.408-3.584,3.307-7.993-5.715-4.511-1.535v12.536h-20.838l-54.119,10.1-9.883,3.265-7.52,4.926V-130.2l-13.535-3.054,5.648-6.039v-5.286l5.34-5.715-5.34-3.756Z" transform="translate(-13163.567 743)" fill="none" stroke="#f46838" stroke-width="2"/>
    <path id="Path_506" data-name="Path 506" d="M8867.938-41.983l39.918-7.051,7.459-4.629v-47.2l-2.133-5.214,5.063-2.694-5.063-4.521-37.977,7.215h-13.187v59.7Z" transform="translate(-13175.567 718.882)" fill="none" stroke="#f46838" stroke-width="1"/>
    <line id="Line_1344" data-name="Line 1344" y2="14.09" transform="translate(-4282.787 679.595)" fill="none" stroke="#f46838" stroke-linecap="round" stroke-width="2"/>
    <line id="Line_1345" data-name="Line 1345" y2="14.09" transform="translate(-4278.338 678.112)" fill="none" stroke="#f46838" stroke-linecap="round" stroke-width="2"/>
    <line id="Line_1346" data-name="Line 1346" y2="14.09" transform="translate(-4289.461 681.078)" fill="none" stroke="#f46838" stroke-linecap="round" stroke-width="2"/>
    <line id="Line_1347" data-name="Line 1347" y2="14.09" transform="translate(-4293.911 682.561)" fill="none" stroke="#f46838" stroke-linecap="round" stroke-width="2"/>
    <line id="Line_1348" data-name="Line 1348" y2="14.09" transform="translate(-4299.102 683.303)" fill="none" stroke="#f46838" stroke-linecap="round" stroke-width="2"/>
    <line id="Line_1349" data-name="Line 1349" y2="14.09" transform="translate(-4303.551 684.786)" fill="none" stroke="#f46838" stroke-linecap="round" stroke-width="2"/>
    <line id="Line_1350" data-name="Line 1350" y2="14.09" transform="translate(-4308.001 686.269)" fill="none" stroke="#f46838" stroke-linecap="round" stroke-width="2"/>
    <line id="Line_1351" data-name="Line 1351" y2="14.09" transform="translate(-4312.45 687.752)" fill="none" stroke="#f46838" stroke-linecap="round" stroke-width="2"/>
    <line id="Line_1352" data-name="Line 1352" y2="17.056" transform="translate(-4267.956 776)" fill="none" stroke="#f46838" stroke-linecap="round" stroke-width="2"/>
    <line id="Line_1353" data-name="Line 1353" y2="17.132" transform="translate(-4272.405 776.742)" fill="none" stroke="#f46838" stroke-linecap="round" stroke-width="2"/>
    <line id="Line_1354" data-name="Line 1354" y2="17.056" transform="translate(-4262.765 775.258)" fill="none" stroke="#f46838" stroke-linecap="round" stroke-width="2"/>
    <line id="Line_1355" data-name="Line 1355" y2="17.132" transform="translate(-4277.596 777.483)" fill="none" stroke="#f46838" stroke-linecap="round" stroke-width="2"/>
    <line id="Line_1356" data-name="Line 1356" y2="17.132" transform="translate(-4282.787 778.225)" fill="none" stroke="#f46838" stroke-linecap="round" stroke-width="2"/>
    <line id="Line_1357" data-name="Line 1357" y2="17.132" transform="translate(-4287.978 778.966)" fill="none" stroke="#f46838" stroke-linecap="round" stroke-width="2"/>
    <line id="Line_1358" data-name="Line 1358" y2="17.132" transform="translate(-4293.169 780.45)" fill="none" stroke="#f46838" stroke-linecap="round" stroke-width="2"/>
    <line id="Line_1359" data-name="Line 1359" y2="17.132" transform="translate(-4298.36 781.191)" fill="none" stroke="#f46838" stroke-linecap="round" stroke-width="2"/>
    <line id="Line_1360" data-name="Line 1360" y2="17.132" transform="translate(-4303.551 782.674)" fill="none" stroke="#f46838" stroke-linecap="round" stroke-width="2"/>
    <line id="Line_1361" data-name="Line 1361" y2="17.132" transform="translate(-4309.484 782.674)" fill="none" stroke="#f46838" stroke-linecap="round" stroke-width="2"/>
    <line id="Line_1362" data-name="Line 1362" y2="17.132" transform="translate(-4276.854 896.136)" fill="none" stroke="#f46838" stroke-linecap="round" stroke-width="2"/>
    <line id="Line_1363" data-name="Line 1363" y2="17.132" transform="translate(-4271.664 895.394)" fill="none" stroke="#f46838" stroke-linecap="round" stroke-width="2"/>
    <line id="Line_1364" data-name="Line 1364" y2="17.132" transform="translate(-4266.472 894.653)" fill="none" stroke="#f46838" stroke-linecap="round" stroke-width="2"/>
    <line id="Line_1365" data-name="Line 1365" y2="17.132" transform="translate(-4282.787 896.136)" fill="none" stroke="#f46838" stroke-linecap="round" stroke-width="2"/>
    <line id="Line_1366" data-name="Line 1366" y2="17.132" transform="translate(-4288.72 897.619)" fill="none" stroke="#f46838" stroke-linecap="round" stroke-width="2"/>
    <line id="Line_1367" data-name="Line 1367" y2="17.132" transform="translate(-4294.652 897.619)" fill="none" stroke="#f46838" stroke-linecap="round" stroke-width="2"/>
    <line id="Line_1368" data-name="Line 1368" y2="17.132" transform="translate(-4300.585 898.361)" fill="none" stroke="#f46838" stroke-linecap="round" stroke-width="2"/>
    <path id="Path_509" data-name="Path 509" d="M8832.808-92.268" transform="translate(-13168.019 713.45)" fill="none" stroke="#707070" stroke-width="1"/>
    <path id="Path_512" data-name="Path 512" d="M8858.749,36.874l6.964-13.113L8904,16.6l9.8,8.508V71.663l-8.543,10.256-36.673,5.428-8.832-5.428Z" transform="translate(-13174.723 685.317)" fill="none" stroke="#f46838" stroke-width="1"/>
    <path id="Path_513" data-name="Path 513" d="M8867.5,179.432l6.251-19.713,35.115-5.384,7.786,15.726,1.342,57.552-5.521,7.481-33.25,3.966-10.3-2.1Z" transform="translate(-13176.984 649.723)" fill="none" stroke="#f46838" stroke-width="1"/>
    <path id="Path_515" data-name="Path 515" d="M8821.23-158.555l-5.648-2.815v-2.645h7.668V-186l23.27-3.2,8.978,3.2v8.047l-4.354,1.318,2.775,2.538v3.07l-2.775,1.255v5.758l5.774,2.645,24.179-4.446,11.008-9.579-5.568-1.241v-1.318l7.939-1.249v-2.078l-4.312-2.1V-186l4.313,2.617v-17.625l22.706-5.608,4.295,1.719v2.23l2.936,4.671v3.455h-2.936v3.23l2.936,2.118v11.242h6.491l4.614,6.925-9.53,1.255v8.4l4.916-2.645,4.614,1.317-2.953,4.142,2.953,3.208h-6.867l3.914,5.053,5,2.408-3.584,3.307-7.993-5.715-4.511-1.535v12.536h-20.838l-54.119,10.1-9.883,3.265-7.52,4.926V-130.2l-13.535-3.054,5.648-6.039v-5.286l5.34-5.715-5.34-3.756Z" transform="translate(-13163.567 743)" fill="none" stroke="#f46838" stroke-width="1"/>
    <path id="Path_516" data-name="Path 516" d="M8885.1-132.3l15.168,10.812v-14.889L8885.1-119.043Z" transform="translate(-13181.532 724.848)" fill="none" stroke="#f46838" stroke-width="1"/>
    <path id="Path_517" data-name="Path 517" d="M8913.385-135.352v11.419l12.5-14.392v12.939Z" transform="translate(-13188.842 725.352)" fill="none" stroke="#f46838" stroke-width="1"/>
    <path id="Path_533" data-name="Path 533" d="M9768.66,580.406v11.467l15.154,3.31,26.946-3.31V580.406Z" transform="translate(-13409.862 539.617)" fill="none" stroke="#f46838" stroke-width="1"/>
    <path id="Path_541" data-name="Path 541" d="M9888.536,385.171H9913.6l-1.18,9h-23.883Z" transform="translate(-13440.84 590.07)" fill="none" stroke="#f46838" stroke-width="1"/>
    <path id="Path_542" data-name="Path 542" d="M9894.745,385.171v8.654h9.542v-8.654h8.49v8.654l-7.382-7.848-11.8,7.848-7.763-7.848h7.763l9.777,7,8.816-7Z" transform="translate(-13440.141 590.07)" fill="none" stroke="#f46838" stroke-width="1"/>
    <path id="Path_545" data-name="Path 545" d="M9890.9,397.309l4.606,16.873-2.933,5.693-4.515-11.626v-10.94Z" transform="translate(-13440.718 586.933)" fill="#f46838"/>
    <path id="Path_556" data-name="Path 556" d="M9771.834,581.409v9.7h2.117v-9.7h2.931v9.7l2.4.812V581.409h1.539v10.516l2.073,1.33V581.409h1.611v11.845h1.836V580.771l1.143.638v11.845h1.583V580.771h1.459v12.483h1.923V581.409h1.823v11.845l1.768-.7v-11.15h1.646v10.516h1.714V580.771h1.355v10.342h1.471V580.771h.964v10.342h1.605V580.167l1.956.6v10.342h1.708V580.167h1.038v10.946h1.365V580.167l-39.023.6Z" transform="translate(-13410.682 539.679)" fill="none" stroke="#f46838" stroke-width="0.5"/>
    <line id="Line_1376" data-name="Line 1376" y2="5.191" transform="translate(-3541.207 1013.306)" fill="none" stroke="#f46838" stroke-linecap="round" stroke-width="1"/>
    <line id="Line_1377" data-name="Line 1377" y2="5.191" transform="translate(-3538.982 1012.564)" fill="none" stroke="#f46838" stroke-linecap="round" stroke-width="1"/>
    <line id="Line_1378" data-name="Line 1378" y2="5.191" transform="translate(-3541.207 1013.306)" fill="none" stroke="#f46838" stroke-linecap="round" stroke-width="1"/>
    <line id="Line_1379" data-name="Line 1379" y2="5.191" transform="translate(-3536.758 1012.564)" fill="none" stroke="#f46838" stroke-linecap="round" stroke-width="1"/>
    <line id="Line_1380" data-name="Line 1380" y2="5.191" transform="translate(-3538.982 1012.564)" fill="none" stroke="#f46838" stroke-linecap="round" stroke-width="1"/>
    <line id="Line_1381" data-name="Line 1381" y2="5.191" transform="translate(-3534.533 1012.564)" fill="none" stroke="#f46838" stroke-linecap="round" stroke-width="1"/>
    <line id="Line_1382" data-name="Line 1382" y2="5.191" transform="translate(-3534.533 1012.564)" fill="none" stroke="#f46838" stroke-linecap="round" stroke-width="1"/>
    <line id="Line_1383" data-name="Line 1383" y2="5.191" transform="translate(-3532.308 1012.564)" fill="none" stroke="#f46838" stroke-linecap="round" stroke-width="1"/>
    <line id="Line_1384" data-name="Line 1384" y2="5.191" transform="translate(-3530.083 1011.823)" fill="none" stroke="#f46838" stroke-linecap="round" stroke-width="1"/>
    <line id="Line_1385" data-name="Line 1385" y2="5.191" transform="translate(-3527.859 1011.823)" fill="none" stroke="#f46838" stroke-linecap="round" stroke-width="1"/>
    <path id="Path_560" data-name="Path 560" d="M8821.23-158.555l-5.648-2.815v-2.645h7.668V-186l23.27-3.2,8.978,3.2v8.047l-4.354,1.318,2.775,2.538v3.07l-2.775,1.255v5.758l5.774,2.645,24.179-4.446,11.008-9.579-5.568-1.241v-1.318l7.939-1.249v-2.078l-4.312-2.1V-186l4.313,2.617v-17.625l22.706-5.608,4.295,1.719v2.23l2.936,4.671v3.455h-2.936v3.23l2.936,2.118v11.242h6.491l4.614,6.925-9.53,1.255v8.4l4.916-2.645,4.614,1.317-2.953,4.142,2.953,3.208h-6.867l3.914,5.053,5,2.408-3.584,3.307-7.993-5.715-4.511-1.535v12.536h-20.838l-54.119,10.1-9.883,3.265-7.52,4.926V-130.2l-13.535-3.054,5.648-6.039v-5.286l5.34-5.715-5.34-3.756Z" transform="translate(-13163.567 743)" fill="none" stroke="#f46838" stroke-width="2"/>
    <path id="Path_561" data-name="Path 561" d="M8867.938-41.983l39.918-7.051,7.459-4.629v-47.2l-2.133-5.214,5.063-2.694-5.063-4.521-37.977,7.215h-13.187v59.7Z" transform="translate(-13175.567 718.882)" fill="none" stroke="#f46838" stroke-width="1"/>
    <line id="Line_1402" data-name="Line 1402" y2="14.09" transform="translate(-4282.787 679.595)" fill="none" stroke="#f46838" stroke-linecap="round" stroke-width="2"/>
    <line id="Line_1403" data-name="Line 1403" y2="14.09" transform="translate(-4278.338 678.112)" fill="none" stroke="#f46838" stroke-linecap="round" stroke-width="2"/>
    <g id="Group_231" data-name="Group 231" transform="translate(-4814.5 566.133)">
      <g id="Group_229" data-name="Group 229">
        <path id="Path_453" data-name="Path 453" d="M0,0S315.4,39.675,483.921,57.843,674.1,72.675,674.1,72.675" transform="translate(259.553 427.892)" fill="none" stroke="#f46838" stroke-width="5"/>
        <line id="Line_1311" data-name="Line 1311" x2="45.236" y2="57.843" transform="translate(516.14 551.735)" fill="none" stroke="#f46838" stroke-linecap="round" stroke-width="8"/>
        <line id="Line_1312" data-name="Line 1312" x1="44.495" y2="62.293" transform="translate(514.656 549.511)" fill="none" stroke="#f46838" stroke-linecap="round" stroke-width="8"/>
        <line id="Line_1313" data-name="Line 1313" x1="31.888" y2="44.495" transform="translate(514.656 490.926)" fill="none" stroke="#f46838" stroke-linecap="round" stroke-width="8"/>
        <line id="Line_1314" data-name="Line 1314" x1="44.495" y2="62.293" transform="translate(514.656 549.511)" fill="none" stroke="#f46838" stroke-linecap="round" stroke-width="8"/>
        <line id="Line_1315" data-name="Line 1315" x2="29.663" y2="36.337" transform="translate(526.522 494.634)" fill="none" stroke="#f46838" stroke-linecap="round" stroke-width="8"/>
        <line id="Line_1316" data-name="Line 1316" y1="2.966" x2="47.461" transform="translate(511.69 540.612)" fill="none" stroke="#f46838" stroke-width="10"/>
        <line id="Line_1317" data-name="Line 1317" y1="2.966" x2="47.461" transform="translate(513.173 615.511)" fill="none" stroke="#f46838" stroke-width="10"/>
        <path id="Path_455" data-name="Path 455" d="M8834.957-84.347v3.967h2.1v40.114l-2.1,2.993,3.244,92.657-1.725,2.4,2.391,117.485-1.383,1.833,1.99,128.45,8.544.854-1.7-129.3,1.792-3.212-2.841-116.107,1.709-2.4-2.875-92.657,2.185-1.807V-82.2l-2.185-2.152V-88.59Z" transform="translate(-8354.074 146.366)" fill="none" stroke="#f46838" stroke-width="1"/>
        <path id="Path_456" data-name="Path 456" d="M8860.551-97.108V-87.7l3.85,1.85V-82.6l-3.85,2.021v29.109l1.68,1.153v10.264l-10.2,2.107,1.341,43.015,2.278,165.6-1.656,3.257,1.656,95.134,1.2,34.449-5.538-1.232-2.222-128.351,2.752-3.257-3.548-115.956,2.076-2.359-3.315-92.4,1.746-1.894v-43.9l-1.746-2.869.769-2.831.978-.809v-9.482h8.046Z" transform="translate(-8357.2 149.791)" fill="#f46838"/>
        <path id="Path_459" data-name="Path 459" d="M8885.678,322.859l-5.229,26.107v61.542l42.137,3.645V343.8L8915.33,319Z" transform="translate(-8365.83 41.037)" fill="none" stroke="#f46838" stroke-width="1"/>
        <path id="Path_463" data-name="Path 463" d="M8944.147-136.375v19.227l1.4,2.013v3.956h-1.4l1.4,41.677-1.4,5.887,2.5,94.567-2.5,3.1,2.9,117.443-1.062,3.381,3.205,141.388,19.156-1.155-2.323-135.79-1.687-2.536L8962.02,39.829l-1.367-.994V34.058l-1.463-47.941-1-44.519-2.462-5.211v-42.4h3.467v-3.3l-3.467-1.869v-8.435l-1.5-13.838Z" transform="translate(-8382.291 158.715)" fill="#f46838"/>
        <path id="Path_464" data-name="Path 464" d="M8840.973,513.557v11.068l2.268,2.453v2.354l2.282,95.139-4.55,5.858v22.06l12.166,1.527V633.035l1.544-6.74-2.549-90.124-3.713-1.943v-4.8l-2.9-2.354v-2.453l-1.271-1.585V512.43Z" transform="translate(-8355.629 -8.949)" fill="none" stroke="#f46838" stroke-width="1"/>
        <path id="Path_465" data-name="Path 465" d="M8845.67,510.437l29.2-4.946,1.512,16.825-2.508,6.217v4.65l1,2.606v32.019l1.512,37.814-1.512,12.946,1.512,24.716V648.5l-21.674,3.771V630.289l1.221-6.485-2.639-88.015-3.9-3.3v-3.961l-2.531-3.283-1.2-4.1Z" transform="translate(-8356.842 -7.156)" fill="#f46838"/>
        <path id="Path_466" data-name="Path 466" d="M8936.5,490.317l.767,11.868-.767,1.071v1.369l.767.856v5l-.767.749v1.554l1.766,1.678v2.506l1.795,1.544v5.553l1.439,98.973-3.905,3.275v19.425h14.31V624.6l-1.844-2.608-1.67-97.933-4.2-1.065v-3.774l-1.962-1.537V515.1l-1.149-2.324-1.021-1.554,1.021-.749v-5.851l-1.021-1.369,1.021-1.071V491.147Z" transform="translate(-8380.315 -3.235)" fill="none" stroke="#f46838" stroke-width="1"/>
        <path id="Path_467" data-name="Path 467" d="M8943.845,461.836l-2.178,33.328v.99l1.007,2.01-.32,4.371-.687,1.312,2.178,4.443v1.859l1.208,1.265.457.626v3.539l4.481.791,1.387,98.163,2.034,3.1v21.057l23.682-.7V619.137l-5.331-3.626L8970.2,465.829Z" transform="translate(-8381.65 4.125)" fill="#f46838"/>
        <path id="Path_468" data-name="Path 468" d="M8519.556,410.5v27.666h-12.377v-6.112h-6.236v6.112s240.115,23.124,242.433,23.124,83.212,4.929,83.212,4.929l55.573,8.252,80.919,10.818,95.8,9.12,97.225,5.85,6.347.382h45.894l-2.789-17.607v17.607l-6.881-15.235,2.47,13.547-9.241-13.547,1.532,13.547-7.647-13.547-1.188,13.547-6.613-13.547v13.547l-7.148-15.919v15.919l-7.01-15.919v15.919l-7.628-15.919-.1,15.919-6.791-15.919v15.919l-9.458-15.919,1.441,15.919-7.9-15.919V497.7l-8.209-14.663V497.7l-7.993-16.05V496l-5.476-12.969V494.41l-7.047-12.762V494.41l-6.069-12.762V496l-8.459-17.077V494.41l-5.744-15.482V494.41l-7.547-16.877v15.145l-6.706-13.751v13.751l-7.455-15.145v15.145l-7.2-16.824v16.824l-8.923-16.824v15.4l-6.889-15.4v13.817L9031.3,473.75v15.922l-7.352-15.922v13.471l-7.831-14.711v14.711l-7.989-17.075v17.075l-7.5-17.075v13.965L8991.606,469l-1.572,16.291L8982.462,469v15.112l-9.038-16.1v13.638l-8.824-15.16-1.521,15.16-8.821-16.424v16.424l-9.354-16.424v13.7l-9.277-15.761v14.367l-8.885-14.367v12.689l-10.91-15.266v15.266l-9.52-15.266V473.75l-10.42-15.5v15.5l-9.436-15.5v12.939l-10.147-15.312v14.273l-11.029-15.614V469l-7.968-14.467v13.477l-29.484-2.786-10.159-15.834v11.2l-11.558-12.667V461.29l-13.316-14.861V461.29l-12.269-17.06v16.358l-10.6-16.358v16.358l-7.014-14.159v11.816l-7.169-14.016-1.234,14.016-12.61-17.253v14.88l-14.83-16.4v16.4L8715.229,437.9l-1.028,15.99V439.474l-12.709,14.415V435l-1.437,18.893-12.584-20.538v20.538l-1.92-20.538-14.228,19.363V433.351l-1.4,18.316-12.96-22.255v20.309h-1.5V429.412l-11.33,17.9h-1.5l-1-19.111-1.307,1.211v17.9L8626.7,425.74l-1.236,21.572-1.243-21.572-12.277,18.49-2.062-20.647v19.4l-16.008-21.971V441.8l-2.244-19.349-13.235,20.533-1.034-21.971h-1.205V441.8l-16.008-24.125h-1.826V441.8l-2.128-1.761V417.671l-13.238,20.495-1.71-23.321-1.118,22.238Z" transform="translate(-8267.758 17.392)" fill="none" stroke="#f46838" stroke-width="1"/>
        <path id="Path_469" data-name="Path 469" d="M8434.929,382.329l-2.681-4.988h4.221l-1.54-4.095h4.215l52.051-87.893v-1.537h4.327l-2.181,1.537L8473.36,364.1l4.582,4.277,1.895,4.867,1.925,4.095-13.244,3.275v-3.275H8441.3v3.275Z" transform="translate(-8250.006 50.129)" fill="none" stroke="#f46838" stroke-width="2"/>
        <path id="Path_470" data-name="Path 470" d="M8421.01,418.927v9.113h7.662V417.351h6.477v8.512h2.988v-8.512h4.488v8.512h3.164v-8.512h5.1v8.512h3.562v-10.84h4.716v9.2h4.121V412.889h3.8v11.331h4.859V412.889h4.406v11.331h4.611V411.188h2.707V421.5h5.408V411.188h6.244V421.5l2.093-2.577v-9.743Z" transform="translate(-8247.102 17.732)" fill="none" stroke="#f46838" stroke-width="1"/>
        <path id="Path_471" data-name="Path 471" d="M8829.605,512.43l1.724,76.964.55,24.605.413,18.46.224,9.988.221,9.867,3.752-5.344V632.459l-3.752-8.336h6.584L8841.555,614h-5.066l-3.752-7.649h6.584l-2.832-8.851h5.066l-2.234-8.105-6.584-8.565h6.584l-6.584-7.684h6.584l-7.028-9.473h7.028l-6.584-8.634h6.584l-6.584-10.525h6.584l-7.028-15.266h7.028Z" transform="translate(-8352.69 -8.949)" fill="none" stroke="#f46838" stroke-width="1"/>
        <path id="Path_472" data-name="Path 472" d="M8380.23,426.016v23.1l22.132,4.1-4.265-17.5,18.966,17.5v-17.5l16.4-3.821-10.5,17.216,10.5,4.1h20.423V431.9l-14.728,17.216,29.058,7.1-54.8,15.686-27.9-15.686-51.627,4.168v-4.168l40.092-7.1Z" transform="translate(-8224.589 13.382)" fill="none" stroke="#f46838" stroke-width="1"/>
        <path id="Path_473" data-name="Path 473" d="M8358.031,470.163c16.961,5.481,57.455,13.578,57.455,13.578l61.218-16.772Z" transform="translate(-8230.827 2.799)" fill="none" stroke="#f46838" stroke-width="1"/>
        <path id="Path_474" data-name="Path 474" d="M8458.348,484.527l80.29-9.641h-44.017Z" transform="translate(-8256.751 0.753)" fill="none" stroke="#f46838" stroke-width="1"/>
        <path id="Path_475" data-name="Path 475" d="M8562.659,474.887,8810.454,488.7l-68.7,15.7H8731.07l46.021-15.7h-35.335l-29.849,12.459h-16.289l-28.229-16.309,15.227,1.169,34.9,2.681-50.131,12.459-32.723-16.309v10.521l26.555-9.352-37.533-1.169-27.068,10.521-16.1-3.163-17.86-3.508,20.22-8.847h25.078l-76.395,5Z" transform="translate(-8275.671 0.753)" fill="none" stroke="#f46838" stroke-width="1"/>
        <path id="Path_476" data-name="Path 476" d="M8531.563,452.109l9.221,13.3,10.23-9.374,18.586,9.374,10.956-5.993,22.624,11.9,9.777-11.9,4.018,11.9,8.172-5.909,5.93,5.909,6.457-5.909,10.523,5.909,8.354-5.909,4.652,9.751,7.08-9.751,6.263,9.751,9.458-9.751,4.059,9.751,9.516-9.751v9.751l11.04-3.841,6.74,3.841,9.262-3.841v3.841l10.955-3.841,4.219,7.868,5.48-4.027,8.988,4.027,6.764-4.027,9.881,4.027,4.43-4.027" transform="translate(-8275.671 6.639)" fill="none" stroke="#f46838" stroke-width="1"/>
        <path id="Path_477" data-name="Path 477" d="M9135.113,112l11.627,276.156H9164.2l-11.45-265,20.4,30.072,4.885,239.394h17.418L9189.3,166.866l13.988,20.718,8.854,206.768L9227.3,397.7l-6.808-195.829,14.026,15.62,7.366,180.21h11.186l-5.026-166.511,16.647,19.2,5.342,151.853h10.732l-3.574-143.313,14.38,16.419V402.245h13.319V286.938l12.256,9.861V402.245l14.928,2.616V311.335l14.675,10.278v84.8h10.524V329.6s-37.042-29.379-92.582-83.778S9135.113,112,9135.113,112Z" transform="translate(-8431.641 94.53)" fill="none" stroke="#f46838" stroke-width="1"/>
        <path id="Path_498" data-name="Path 498" d="M8188,716.025h120.011l61.247-5.4h221.51V705.44h48.819V675.334l9.533-5.533h5.362v27.971h12.555l3.4-5.324h42.084l5.7-7.462,5.863-9.652h4.2v9.652h18.137l3.021,12.786h9.869v-5.324l27.572-7.462v15.808l6.772,4.646h28.09l4.227,5.188h3.239v-9.835h17.1l8.551,9.835h-3.975v18.453h-91.579l-31.027,4.412h-57.852l-.645-20.215-74.418,5.942H8417.579l-67.912,9.861H8188Z" transform="translate(-8186.888 -49.617)" fill="#f46838"/>
        <path id="Path_499" data-name="Path 499" d="M8193.914,742.549v23.386h5.3V740.368h8.273v25.567h8.918V740.368h5.883v23.58h6.412v-23.58h6.311v23.58h6.474v-23.58h6.7v23.58h2.853v-23.58h5.631v23.58l9.266-23.58v20.4h6.653V735.233l7.193,5.135v20.4h5.7V735.233l3.246,25.532h2.86v-23.02h2.406l3.229,23.02,2.294-23.02,2.887,26.2v-23.58l3.044-2.623v23.02h3.256v-23.02l2.939,2.623v21.3h4.926v-21.3h4.62v20.4h5.409V735.233h3.933v26.432h4.276v-23.92h5.689v23.02l5.568.9-3.046-29.2h8.914v31.482l7.406-2.283V735.233h3.969v25.532l12.615-28.3-3.03,28.3h9.039l-2.543-30.658h6.578v31.558h4.1v-29.2h3.5v28.3h5.922v-28.3h4.231v25.847l6.05,2.453-2.379-30.658h5.753v28.205l4.955,2.453V730.107h3.816v28.205l2.551-28.205h2.151v29.281h2.663V730.107h3.984v29.281l4.479-1.076-.906-28.205h5.149v29.281h2.962V731.037h5.447v27.275h3.952V731.037h5.759v27.275h4.792l-.932-28.205h5.071v28.205h4.854V729.118l4.905.989v28.205h6.827l-1.222-28.205,6.982.93v28.351h4.6v-30.27h5.03V757.2h3.426V728.026l4.8,2.081.913,28.205h4.207l-1.465-28.205h5.871v29.281l4.919-1.076V730.107h6.117l.745,28.205h4.134V731.037h4.914l1.825,26.167H8545v-27.1h3.521l.788,27.1h5.713V729.118h4.129l1.023,27.062h5.186V729.118h7.017V757.2l2.544-1.024.986-26.073h4.325v22.081h4.9l-1.615-22.081h5.567v22.081h4.563V728.026l5,2.081,1.546,22.081h4.783l-1.241-22.081h5.746v22.081h4.572v-23.07h7.233v22.055h4.367V729.118h4.859l1.341,20.721h5.684V728.026l4.94-.837v22.65h5.71V724.761h7.262v22.473l5.8.921-.793-22.336h5.1l1.491,21.415h5.149c-.924-29.214-.768-22.473-.768-22.473l9.756-.847-80.987,1.9h-90.953l-45.276,1.37-66.57-1.37-43.873,4.289-131.235,5.125-28.375,2.513Z" transform="translate(-8188.416 -63.601)" fill="none" stroke="#f46838" stroke-width="2"/>
        <path id="Path_502" data-name="Path 502" d="M8977.462,410.1l50.333-80.922,1.6.846v-1.86h-4.409l-.946,1.86-7.494.738-2.634,2.319h6.457l2.639-.778-45.546,74.177-1.246,7.072Z" transform="translate(-8390.578 38.669)" fill="none" stroke="#f46838" stroke-width="0.5"/>
        <path id="Path_503" data-name="Path 503" d="M8920.807,453.686l-13.5-2.742-3.262-10.414h16.038l5.213,1.451v3.2h3.947v-1.713h4.634l-.981,5.311,5.847-1.514v-3.8h21.3l12.176,2.978v3.271l14.08,1.225,2.354,2.742.637,3.017,19.532,3.071h5.575v3.319Z" transform="translate(-8371.928 9.631)" fill="#f46838"/>
        <path id="Path_504" data-name="Path 504" d="M8980.963,495.027v10.616l8.174-9.5,4.849,9.5,6.7-9.5,2.262,12.065,9.365-10.019v11.208l8.459-9.49,2.466,9.49L9032.5,501v10.345L9041.122,501v10.345l8.613-7.55v9.741l8.929-7.892v7.892l9.395-7.892v10.313l8.963-8.872v8.872l10.095-8.872v10.29l8.235-9.169v9.169l11.172-7.981v9.458l7.935-7.508v7.508l9.325-7.508v9.288l6.438-8.24,1.78,8.24,7.369-8.24,2.859,9.933,6.978-8.79v7.1l6.644-5.813,1.338,7.506,5.363-4.951,1.4,4.951,6.1-6.369v6.369l7.393-4.951v4.951l6.553-4.951v4.951l5.632-3.473,1.412,5.281,7.272-6.758v6.758l8.247-5.281v5.281l7.445-5.281v6.358l6.332-4.578v4.578l5.947-4.578v4.578l4.824-4.578v4.578l5.5-4.578v4.578l5.66-4.578v4.578l5.608-4.578v4.578l6.214-4.578v4.578l4.551-2.885v3.613l4.4-3.613v2.885l3.328-2.885v3.613l5.467-3.613v2.885l7.533-2.081v3.5l7.383-2.494-.771,1.806,7.438-2.809v3.5l7.146-3.5v3.5l7.345-3.5v2.081l8.871-2.081v2.081l6.546-2.081v3.5l5.948-3.5v2.809l2.521-2.308v2.308l-31.231,1.835h-21.2l-20.73-1.146-28.5-.688h-16.7l-22.406-.728-22.619-1.078-20.674-1.808-24.729-.586-18.45-1.107-18.714-1.781-27.985-2.9-30.914-3.564-33.786-4.187-13.91-1.821V494.516Z" transform="translate(-8391.366 -4.32)" fill="none" stroke="#f46838" stroke-width="1"/>
        <path id="Path_508" data-name="Path 508" d="M0,0S315.4,39.675,483.921,57.843,674.1,72.675,674.1,72.675" transform="translate(259.553 427.892)" fill="none" stroke="#f46838" stroke-width="5"/>
        <line id="Line_1369" data-name="Line 1369" x2="45.236" y2="57.843" transform="translate(516.14 551.735)" fill="none" stroke="#f46838" stroke-linecap="round" stroke-width="8"/>
        <line id="Line_1370" data-name="Line 1370" x1="44.495" y2="62.293" transform="translate(514.656 549.511)" fill="none" stroke="#f46838" stroke-linecap="round" stroke-width="8"/>
        <line id="Line_1371" data-name="Line 1371" x1="31.888" y2="44.495" transform="translate(514.656 490.926)" fill="none" stroke="#f46838" stroke-linecap="round" stroke-width="8"/>
        <line id="Line_1372" data-name="Line 1372" x1="44.495" y2="62.293" transform="translate(514.656 549.511)" fill="none" stroke="#f46838" stroke-linecap="round" stroke-width="8"/>
        <line id="Line_1373" data-name="Line 1373" x2="29.663" y2="36.337" transform="translate(526.522 494.634)" fill="none" stroke="#f46838" stroke-linecap="round" stroke-width="8"/>
        <line id="Line_1374" data-name="Line 1374" y1="2.966" x2="47.461" transform="translate(511.69 540.612)" fill="none" stroke="#f46838" stroke-width="10"/>
        <line id="Line_1375" data-name="Line 1375" y1="2.966" x2="47.461" transform="translate(513.173 615.511)" fill="none" stroke="#f46838" stroke-width="10"/>
        <path id="Path_510" data-name="Path 510" d="M8834.957-84.347v3.967h2.1v40.114l-2.1,2.993,3.244,92.657-1.725,2.4,2.391,117.485-1.383,1.833,1.99,128.45,8.544.854-1.7-129.3,1.792-3.212-2.841-116.107,1.709-2.4-2.875-92.657,2.185-1.807V-82.2l-2.185-2.152V-88.59Z" transform="translate(-8354.074 146.366)" fill="none" stroke="#f46838" stroke-width="1"/>
        <path id="Path_511" data-name="Path 511" d="M8860.551-97.108V-87.7l3.85,1.85V-82.6l-3.85,2.021v29.109l1.68,1.153v10.264l-10.2,2.107,1.341,43.015,2.278,165.6-1.656,3.257,1.656,95.134,1.2,34.449-5.538-1.232-2.222-128.351,2.752-3.257-3.548-115.956,2.076-2.359-3.315-92.4,1.746-1.894v-43.9l-1.746-2.869.769-2.831.978-.809v-9.482h8.046Z" transform="translate(-8357.2 149.791)" fill="#f46838"/>
        <path id="Path_514" data-name="Path 514" d="M8885.678,322.859l-5.229,26.107v61.542l42.137,3.645V343.8L8915.33,319Z" transform="translate(-8365.83 41.037)" fill="none" stroke="#f46838" stroke-width="1"/>
        <path id="Path_518" data-name="Path 518" d="M8944.147-136.375v19.227l1.4,2.013v3.956h-1.4l1.4,41.677-1.4,5.887,2.5,94.567-2.5,3.1,2.9,117.443-1.062,3.381,3.205,141.388,19.156-1.155-2.323-135.79-1.687-2.536L8962.02,39.829l-1.367-.994V34.058l-1.463-47.941-1-44.519-2.462-5.211v-42.4h3.467v-3.3l-3.467-1.869v-8.435l-1.5-13.838Z" transform="translate(-8382.291 158.715)" fill="#f46838"/>
        <path id="Path_519" data-name="Path 519" d="M8840.973,513.557v11.068l2.268,2.453v2.354l2.282,95.139-4.55,5.858v22.06l12.166,1.527V633.035l1.544-6.74-2.549-90.124-3.713-1.943v-4.8l-2.9-2.354v-2.453l-1.271-1.585V512.43Z" transform="translate(-8355.629 -8.949)" fill="none" stroke="#f46838" stroke-width="1"/>
        <path id="Path_520" data-name="Path 520" d="M8845.67,510.437l29.2-4.946,1.512,16.825-2.508,6.217v4.65l1,2.606v32.019l1.512,37.814-1.512,12.946,1.512,24.716V648.5l-21.674,3.771V630.289l1.221-6.485-2.639-88.015-3.9-3.3v-3.961l-2.531-3.283-1.2-4.1Z" transform="translate(-8356.842 -7.156)" fill="#f46838"/>
        <path id="Path_521" data-name="Path 521" d="M8936.5,490.317l.767,11.868-.767,1.071v1.369l.767.856v5l-.767.749v1.554l1.766,1.678v2.506l1.795,1.544v5.553l1.439,98.973-3.905,3.275v19.425h14.31V624.6l-1.844-2.608-1.67-97.933-4.2-1.065v-3.774l-1.962-1.537V515.1l-1.149-2.324-1.021-1.554,1.021-.749v-5.851l-1.021-1.369,1.021-1.071V491.147Z" transform="translate(-8380.315 -3.235)" fill="none" stroke="#f46838" stroke-width="1"/>
        <path id="Path_522" data-name="Path 522" d="M8943.845,461.836l-2.178,33.328v.99l1.007,2.01-.32,4.371-.687,1.312,2.178,4.443v1.859l1.208,1.265.457.626v3.539l4.481.791,1.387,98.163,2.034,3.1v21.057l23.682-.7V619.137l-5.331-3.626L8970.2,465.829Z" transform="translate(-8381.65 4.125)" fill="#f46838"/>
        <path id="Path_523" data-name="Path 523" d="M8519.556,410.5v27.666h-12.377v-6.112h-6.236v6.112s240.115,23.124,242.433,23.124,83.212,4.929,83.212,4.929l55.573,8.252,80.919,10.818,95.8,9.12,97.225,5.85,6.347.382h45.894l-2.789-17.607v17.607l-6.881-15.235,2.47,13.547-9.241-13.547,1.532,13.547-7.647-13.547-1.188,13.547-6.613-13.547v13.547l-7.148-15.919v15.919l-7.01-15.919v15.919l-7.628-15.919-.1,15.919-6.791-15.919v15.919l-9.458-15.919,1.441,15.919-7.9-15.919V497.7l-8.209-14.663V497.7l-7.993-16.05V496l-5.476-12.969V494.41l-7.047-12.762V494.41l-6.069-12.762V496l-8.459-17.077V494.41l-5.744-15.482V494.41l-7.547-16.877v15.145l-6.706-13.751v13.751l-7.455-15.145v15.145l-7.2-16.824v16.824l-8.923-16.824v15.4l-6.889-15.4v13.817L9031.3,473.75v15.922l-7.352-15.922v13.471l-7.831-14.711v14.711l-7.989-17.075v17.075l-7.5-17.075v13.965L8991.606,469l-1.572,16.291L8982.462,469v15.112l-9.038-16.1v13.638l-8.824-15.16-1.521,15.16-8.821-16.424v16.424l-9.354-16.424v13.7l-9.277-15.761v14.367l-8.885-14.367v12.689l-10.91-15.266v15.266l-9.52-15.266V473.75l-10.42-15.5v15.5l-9.436-15.5v12.939l-10.147-15.312v14.273l-11.029-15.614V469l-7.968-14.467v13.477l-29.484-2.786-10.159-15.834v11.2l-11.558-12.667V461.29l-13.316-14.861V461.29l-12.269-17.06v16.358l-10.6-16.358v16.358l-7.014-14.159v11.816l-7.169-14.016-1.234,14.016-12.61-17.253v14.88l-14.83-16.4v16.4L8715.229,437.9l-1.028,15.99V439.474l-12.709,14.415V435l-1.437,18.893-12.584-20.538v20.538l-1.92-20.538-14.228,19.363V433.351l-1.4,18.316-12.96-22.255v20.309h-1.5V429.412l-11.33,17.9h-1.5l-1-19.111-1.307,1.211v17.9L8626.7,425.74l-1.236,21.572-1.243-21.572-12.277,18.49-2.062-20.647v19.4l-16.008-21.971V441.8l-2.244-19.349-13.235,20.533-1.034-21.971h-1.205V441.8l-16.008-24.125h-1.826V441.8l-2.128-1.761V417.671l-13.238,20.495-1.71-23.321-1.118,22.238Z" transform="translate(-8267.758 17.392)" fill="none" stroke="#f46838" stroke-width="1"/>
        <path id="Path_524" data-name="Path 524" d="M8434.929,382.329l-2.681-4.988h4.221l-1.54-4.095h4.215l52.051-87.893v-1.537h4.327l-2.181,1.537L8473.36,364.1l4.582,4.277,1.895,4.867,1.925,4.095-13.244,3.275v-3.275H8441.3v3.275Z" transform="translate(-8250.006 50.129)" fill="none" stroke="#f46838" stroke-width="2"/>
        <path id="Path_525" data-name="Path 525" d="M8421.01,418.927v9.113h7.662V417.351h6.477v8.512h2.988v-8.512h4.488v8.512h3.164v-8.512h5.1v8.512h3.562v-10.84h4.716v9.2h4.121V412.889h3.8v11.331h4.859V412.889h4.406v11.331h4.611V411.188h2.707V421.5h5.408V411.188h6.244V421.5l2.093-2.577v-9.743Z" transform="translate(-8247.102 17.732)" fill="none" stroke="#f46838" stroke-width="1"/>
        <path id="Path_526" data-name="Path 526" d="M8829.605,512.43l1.724,76.964.55,24.605.413,18.46.224,9.988.221,9.867,3.752-5.344V632.459l-3.752-8.336h6.584L8841.555,614h-5.066l-3.752-7.649h6.584l-2.832-8.851h5.066l-2.234-8.105-6.584-8.565h6.584l-6.584-7.684h6.584l-7.028-9.473h7.028l-6.584-8.634h6.584l-6.584-10.525h6.584l-7.028-15.266h7.028Z" transform="translate(-8352.69 -8.949)" fill="none" stroke="#f46838" stroke-width="1"/>
        <path id="Path_527" data-name="Path 527" d="M8380.23,426.016v23.1l22.132,4.1-4.265-17.5,18.966,17.5v-17.5l16.4-3.821-10.5,17.216,10.5,4.1h20.423V431.9l-14.728,17.216,29.058,7.1-54.8,15.686-27.9-15.686-51.627,4.168v-4.168l40.092-7.1Z" transform="translate(-8224.589 13.382)" fill="none" stroke="#f46838" stroke-width="1"/>
        <path id="Path_528" data-name="Path 528" d="M8358.031,470.163c16.961,5.481,57.455,13.578,57.455,13.578l61.218-16.772Z" transform="translate(-8230.827 2.799)" fill="none" stroke="#f46838" stroke-width="1"/>
        <path id="Path_529" data-name="Path 529" d="M8458.348,484.527l80.29-9.641h-44.017Z" transform="translate(-8256.751 0.753)" fill="none" stroke="#f46838" stroke-width="1"/>
        <path id="Path_530" data-name="Path 530" d="M8562.659,474.887,8810.454,488.7l-68.7,15.7H8731.07l46.021-15.7h-35.335l-29.849,12.459h-16.289l-28.229-16.309,15.227,1.169,34.9,2.681-50.131,12.459-32.723-16.309v10.521l26.555-9.352-37.533-1.169-27.068,10.521-16.1-3.163-17.86-3.508,20.22-8.847h25.078l-76.395,5Z" transform="translate(-8275.671 0.753)" fill="none" stroke="#f46838" stroke-width="1"/>
        <path id="Path_531" data-name="Path 531" d="M8531.563,452.109l9.221,13.3,10.23-9.374,18.586,9.374,10.956-5.993,22.624,11.9,9.777-11.9,4.018,11.9,8.172-5.909,5.93,5.909,6.457-5.909,10.523,5.909,8.354-5.909,4.652,9.751,7.08-9.751,6.263,9.751,9.458-9.751,4.059,9.751,9.516-9.751v9.751l11.04-3.841,6.74,3.841,9.262-3.841v3.841l10.955-3.841,4.219,7.868,5.48-4.027,8.988,4.027,6.764-4.027,9.881,4.027,4.43-4.027" transform="translate(-8275.671 6.639)" fill="none" stroke="#f46838" stroke-width="1"/>
        <path id="Path_532" data-name="Path 532" d="M9135.113,112l11.627,276.156H9164.2l-11.45-265,20.4,30.072,4.885,239.394h17.418L9189.3,166.866l13.988,20.718,8.854,206.768L9227.3,397.7l-6.808-195.829,14.026,15.62,7.366,180.21h11.186l-5.026-166.511,16.647,19.2,5.342,151.853h10.732l-3.574-143.313,14.38,16.419V402.245h13.319V286.938l12.256,9.861V402.245l14.928,2.616V311.335l14.675,10.278v84.8h10.524V329.6s-37.042-29.379-92.582-83.778S9135.113,112,9135.113,112Z" transform="translate(-8431.641 94.53)" fill="none" stroke="#f46838" stroke-width="1"/>
        <path id="Path_553" data-name="Path 553" d="M8188,716.025h120.011l61.247-5.4h221.51V705.44h48.819V675.334l9.533-5.533h5.362v27.971h12.555l3.4-5.324h42.084l5.7-7.462,5.863-9.652h4.2v9.652h18.137l3.021,12.786h9.869v-5.324l27.572-7.462v15.808l6.772,4.646h28.09l4.227,5.188h3.239v-9.835h17.1l8.551,9.835h-3.975v18.453h-91.579l-31.027,4.412h-57.852l-.645-20.215-74.418,5.942H8417.579l-67.912,9.861H8188Z" transform="translate(-8186.888 -49.617)" fill="#f46838"/>
        <path id="Path_554" data-name="Path 554" d="M8193.914,742.549v23.386h5.3V740.368h8.273v25.567h8.918V740.368h5.883v23.58h6.412v-23.58h6.311v23.58h6.474v-23.58h6.7v23.58h2.853v-23.58h5.631v23.58l9.266-23.58v20.4h6.653V735.233l7.193,5.135v20.4h5.7V735.233l3.246,25.532h2.86v-23.02h2.406l3.229,23.02,2.294-23.02,2.887,26.2v-23.58l3.044-2.623v23.02h3.256v-23.02l2.939,2.623v21.3h4.926v-21.3h4.62v20.4h5.409V735.233h3.933v26.432h4.276v-23.92h5.689v23.02l5.568.9-3.046-29.2h8.914v31.482l7.406-2.283V735.233h3.969v25.532l12.615-28.3-3.03,28.3h9.039l-2.543-30.658h6.578v31.558h4.1v-29.2h3.5v28.3h5.922v-28.3h4.231v25.847l6.05,2.453-2.379-30.658h5.753v28.205l4.955,2.453V730.107h3.816v28.205l2.551-28.205h2.151v29.281h2.663V730.107h3.984v29.281l4.479-1.076-.906-28.205h5.149v29.281h2.962V731.037h5.447v27.275h3.952V731.037h5.759v27.275h4.792l-.932-28.205h5.071v28.205h4.854V729.118l4.905.989v28.205h6.827l-1.222-28.205,6.982.93v28.351h4.6v-30.27h5.03V757.2h3.426V728.026l4.8,2.081.913,28.205h4.207l-1.465-28.205h5.871v29.281l4.919-1.076V730.107h6.117l.745,28.205h4.134V731.037h4.914l1.825,26.167H8545v-27.1h3.521l.788,27.1h5.713V729.118h4.129l1.023,27.062h5.186V729.118h7.017V757.2l2.544-1.024.986-26.073h4.325v22.081h4.9l-1.615-22.081h5.567v22.081h4.563V728.026l5,2.081,1.546,22.081h4.783l-1.241-22.081h5.746v22.081h4.572v-23.07h7.233v22.055h4.367V729.118h4.859l1.341,20.721h5.684V728.026l4.94-.837v22.65h5.71V724.761h7.262v22.473l5.8.921-.793-22.336h5.1l1.491,21.415h5.149c-.924-29.214-.768-22.473-.768-22.473l9.756-.847-80.987,1.9h-90.953l-45.276,1.37-66.57-1.37-43.873,4.289-131.235,5.125-28.375,2.513Z" transform="translate(-8188.416 -63.601)" fill="none" stroke="#f46838" stroke-width="2"/>
        <path id="Path_557" data-name="Path 557" d="M8977.462,410.1l50.333-80.922,1.6.846v-1.86h-4.409l-.946,1.86-7.494.738-2.634,2.319h6.457l2.639-.778-45.546,74.177-1.246,7.072Z" transform="translate(-8390.578 38.669)" fill="none" stroke="#f46838" stroke-width="0.5"/>
        <path id="Path_558" data-name="Path 558" d="M8920.807,453.686l-13.5-2.742-3.262-10.414h16.038l5.213,1.451v3.2h3.947v-1.713h4.634l-.981,5.311,5.847-1.514v-3.8h21.3l12.176,2.978v3.271l14.08,1.225,2.354,2.742.637,3.017,19.532,3.071h5.575v3.319Z" transform="translate(-8371.928 9.631)" fill="#f46838"/>
        <path id="Path_559" data-name="Path 559" d="M8980.963,495.027v10.616l8.174-9.5,4.849,9.5,6.7-9.5,2.262,12.065,9.365-10.019v11.208l8.459-9.49,2.466,9.49L9032.5,501v10.345L9041.122,501v10.345l8.613-7.55v9.741l8.929-7.892v7.892l9.395-7.892v10.313l8.963-8.872v8.872l10.095-8.872v10.29l8.235-9.169v9.169l11.172-7.981v9.458l7.935-7.508v7.508l9.325-7.508v9.288l6.438-8.24,1.78,8.24,7.369-8.24,2.859,9.933,6.978-8.79v7.1l6.644-5.813,1.338,7.506,5.363-4.951,1.4,4.951,6.1-6.369v6.369l7.393-4.951v4.951l6.553-4.951v4.951l5.632-3.473,1.412,5.281,7.272-6.758v6.758l8.247-5.281v5.281l7.445-5.281v6.358l6.332-4.578v4.578l5.947-4.578v4.578l4.824-4.578v4.578l5.5-4.578v4.578l5.66-4.578v4.578l5.608-4.578v4.578l6.214-4.578v4.578l4.551-2.885v3.613l4.4-3.613v2.885l3.328-2.885v3.613l5.467-3.613v2.885l7.533-2.081v3.5l7.383-2.494-.771,1.806,7.438-2.809v3.5l7.146-3.5v3.5l7.345-3.5v2.081l8.871-2.081v2.081l6.546-2.081v3.5l5.948-3.5v2.809l2.521-2.308v2.308l-31.231,1.835h-21.2l-20.73-1.146-28.5-.688h-16.7l-22.406-.728-22.619-1.078-20.674-1.808-24.729-.586-18.45-1.107-18.714-1.781-27.985-2.9-30.914-3.564-33.786-4.187-13.91-1.821V494.516Z" transform="translate(-8391.366 -4.32)" fill="none" stroke="#f46838" stroke-width="1"/>
        <g id="Group_228" data-name="Group 228">
          <g id="Group_226" data-name="Group 226">
            <path id="Path_341" data-name="Path 341" d="M549.511,0S495.194,40.121,417.536,83.773c-39.579,22.248-86.328,43.725-132.625,64.718-52.478,23.8-107.969,41.583-154.637,57.6C54.816,231.99,0,249.171,0,249.171" transform="translate(0 0)" fill="none" stroke="#f46838" stroke-linecap="round" stroke-width="5"/>
            <path id="Path_342" data-name="Path 342" d="M473.87,0s-46.84,34.649-113.808,72.348C325.93,91.562,285.617,110.11,245.693,128.24c-45.254,20.55-93.107,35.912-133.351,49.744C47.271,200.35,0,215.188,0,215.188" transform="translate(0 21.506)" fill="none" stroke="#f46838" stroke-linecap="round" stroke-width="5"/>
            <path id="Path_345" data-name="Path 345" d="M0,0,26.267,73.716l42.7,119.836" transform="translate(1288.866 407.869)" fill="none" stroke="#f46838" stroke-width="3"/>
            <path id="Path_346" data-name="Path 346" d="M0,0,12.176,29.544,31.97,77.572" transform="translate(1296.373 523.849)" fill="none" stroke="#f46838" stroke-width="4"/>
            <line id="Line_1142" data-name="Line 1142" x2="11.865" y2="418.993" transform="translate(463.487 31.888)" fill="none" stroke="#f46838" stroke-linecap="round" stroke-width="2"/>
            <line id="Line_1143" data-name="Line 1143" y2="14.09" transform="translate(541.353 111.237)" fill="none" stroke="#f46838" stroke-linecap="round" stroke-width="2"/>
            <line id="Line_1144" data-name="Line 1144" x2="8.157" y2="398.97" transform="translate(436.791 48.944)" fill="none" stroke="#f46838" stroke-linecap="round" stroke-width="2"/>
            <line id="Line_1145" data-name="Line 1145" x2="9.641" y2="356.7" transform="translate(407.869 89.731)" fill="none" stroke="#f46838" stroke-linecap="round" stroke-width="2"/>
            <line id="Line_1146" data-name="Line 1146" x2="9.641" y2="335.936" transform="translate(378.206 106.046)" fill="none" stroke="#f46838" stroke-linecap="round" stroke-width="2"/>
            <line id="Line_1147" data-name="Line 1147" x2="7.416" y2="298.857" transform="translate(317.396 134.968)" fill="none" stroke="#f46838" stroke-linecap="round" stroke-width="2"/>
            <line id="Line_1148" data-name="Line 1148" x2="8.899" y2="316.655" transform="translate(348.543 120.878)" fill="none" stroke="#f46838" stroke-linecap="round" stroke-width="2"/>
            <line id="Line_1149" data-name="Line 1149" x2="8.157" y2="328.52" transform="translate(332.969 109.012)" fill="none" stroke="#f46838" stroke-linecap="round" stroke-width="1"/>
            <line id="Line_1150" data-name="Line 1150" x2="7.416" y2="312.947" transform="translate(302.565 124.585)" fill="none" stroke="#f46838" stroke-linecap="round" stroke-width="1"/>
            <line id="Line_1151" data-name="Line 1151" x2="6.674" y2="290.699" transform="translate(271.418 138.675)" fill="none" stroke="#f46838" stroke-linecap="round" stroke-width="1"/>
            <line id="Line_1152" data-name="Line 1152" x2="6.674" y2="282.542" transform="translate(283.284 149.058)" fill="none" stroke="#f46838" stroke-linecap="round" stroke-width="2"/>
            <line id="Line_1153" data-name="Line 1153" x2="6.674" y2="387.105" transform="translate(608.096 77.124)" fill="none" stroke="#f46838" stroke-linecap="round" stroke-width="1"/>
            <line id="Line_1154" data-name="Line 1154" x2="8.157" y2="347.801" transform="translate(361.149 94.181)" fill="none" stroke="#f46838" stroke-linecap="round" stroke-width="1"/>
            <line id="Line_1155" data-name="Line 1155" x2="9.641" y2="364.857" transform="translate(390.071 77.124)" fill="none" stroke="#f46838" stroke-linecap="round" stroke-width="1"/>
            <line id="Line_1156" data-name="Line 1156" x2="5.191" y2="273.643" transform="translate(238.789 152.765)" fill="none" stroke="#f46838" stroke-linecap="round" stroke-width="1"/>
            <line id="Line_1157" data-name="Line 1157" x2="5.933" y2="236.564" transform="translate(203.934 180.946)" fill="none" stroke="#f46838" stroke-linecap="round" stroke-width="2"/>
            <line id="Line_1158" data-name="Line 1158" x2="5.933" y2="231.373" transform="translate(129.035 208.384)" fill="none" stroke="#f46838" stroke-linecap="round" stroke-width="2"/>
            <line id="Line_1159" data-name="Line 1159" x2="5.933" y2="231.373" transform="translate(171.305 192.069)" fill="none" stroke="#f46838" stroke-linecap="round" stroke-width="2"/>
            <line id="Line_1160" data-name="Line 1160" x2="5.933" y2="213.575" transform="translate(90.473 220.249)" fill="none" stroke="#f46838" stroke-linecap="round" stroke-width="2"/>
            <line id="Line_1161" data-name="Line 1161" x2="5.933" y2="197.26" transform="translate(48.203 234.339)" fill="none" stroke="#f46838" stroke-linecap="round" stroke-width="2"/>
            <path id="Path_347" data-name="Path 347" d="M0,0S264.53,397.51,466.077,473.974s260.671-77.229,260.671-77.229" transform="translate(562.118 11.124)" fill="none" stroke="#f46838" stroke-width="5"/>
            <path id="Path_348" data-name="Path 348" d="M0,0S256.686,364.416,465.29,445.478s283.615-86.809,283.615-86.809" transform="translate(506.59 46.125)" fill="none" stroke="#f46838" stroke-width="5"/>
            <line id="Line_1162" data-name="Line 1162" x2="5.933" y2="252.137" transform="translate(209.867 165.372)" fill="none" stroke="#f46838" stroke-linecap="round" stroke-width="1"/>
            <line id="Line_1164" data-name="Line 1164" x2="7.416" y2="370.048" transform="translate(627.377 100.855)" fill="none" stroke="#f46838" stroke-linecap="round" stroke-width="1"/>
            <line id="Line_1165" data-name="Line 1165" x2="6.674" y2="348.543" transform="translate(646.658 124.585)" fill="none" stroke="#f46838" stroke-linecap="round" stroke-width="1"/>
            <path id="Path_349" data-name="Path 349" d="M0,0,8.611,323.385" transform="translate(665.939 152.765)" fill="none" stroke="#f46838" stroke-linecap="round" stroke-width="1"/>
            <path id="Path_350" data-name="Path 350" d="M0,0,11.642,297.523" transform="translate(685.22 180.204)" fill="none" stroke="#f46838" stroke-linecap="round" stroke-width="1"/>
            <line id="Line_1229" data-name="Line 1229" y2="14.09" transform="translate(547.286 110.495)" fill="none" stroke="#f46838" stroke-linecap="round" stroke-width="2"/>
          </g>
          <path id="Path_479" data-name="Path 479" d="M9825.432,591.891l36.522,17.035,38.616,6.9,37.363,12.456-7.916-15.777L9906,605.82l-36.924-7.34-43.641-16.638Z" transform="translate(-8610.033 -26.887)" fill="#f46838" stroke="#f46838" stroke-width="1"/>
          <path id="Path_480" data-name="Path 480" d="M9768.66,596.516l25.555,12.549,45.658,12.352,35.146,6.666,29.645,7.928,15.974-4.742-30.785-9.852-3.131,6.666-32.783-6.666-49.6-15.833-20.711-5.912Z" transform="translate(-8595.362 -30.679)" fill="none" stroke="#f46838" stroke-width="1"/>
          <path id="Path_481" data-name="Path 481" d="M9878.211,363.161v4.309l-1.517,2.5,1.517,22.946-1.517,1.807,1.517,144.283,2.29,70.026-2.29,1.673v6.511h8.859v-8.184l-1.789-1.093V572.932h-2.724V540.371h2.724l-2.787-145.647V377.916l2.41-2v-5.942l-1.147-2.5-1.263-3.09v-2.814Z" transform="translate(-8623.28 30.037)" fill="none" stroke="#f46838" stroke-width="1"/>
          <path id="Path_482" data-name="Path 482" d="M9888.916,622l4.177-4.459v-3.994l-2.027-20.844,2.027-2.677V578.478l-2.027-4.56V545.245l2.027-29.928,7.918-3.314-1.715-10.24-6.2-2.337h-3.922V472.071l3.922-3.431,3.239-2.228v-9.618h-5.267l-1.895-3.42-1.764-18.491,3.658-4.282,3.535-9.244-1.508-4.534-6.951-2.911,1.266-25.065v-8.782l-3.572,3.127,2.886,162.055h-2.507v33.233h2.507v33.857l2.2,1.21Z" transform="translate(-8625.125 25.257)" fill="#f46838"/>
          <path id="Path_483" data-name="Path 483" d="M9899.042,415.5h14.529l.947-3.773h1.824V395.38l-1.824-2.54V377.161l-.947-1.611.947-2.765v-4.3l4.487-2.905,3.766.9v6.309l2.105,2.765-.841,3.83h-1.265l2.105,3.021v5.442l-2.105,2.126-1.534,2.87v53.436l1.534,68.4-2.933,1.391,1.4.756,1.534,28.189-1.534,27.055,1.534,3.677,1.152,34.633v6.427h-7.392l1.071-32.6v-12.14l-1.834-49.092-2.279-9.129-17.417-.988v-1.266l7.333-3.446-1.8-10.707-6.571-2.113h18.535l.947-19.5-3.93-11.546h-14.516l2.969-1.825V453.1l-5.166-1.419H9908.7l5.821-2.911V428.356l-2.811-4.1-17.832,1.464Z" transform="translate(-8627.72 29)" fill="none" stroke="#f46838" stroke-width="1"/>
          <path id="Path_484" data-name="Path 484" d="M9931.406,404.363v15.743l1.5,1.926v34.385l1.6,2.009v39.856l1.273,54.983h4.98v4.28l2.595,1.017h-2.595l-3.316,1.5-1.664,20.883,1.664,37.64,3.316,5.684-1.621,6.275-5.8-3.833-1.1-40.415-1.118-4.793,1.118-25.288-1.118-29.551h-1.011l1.614-2.264-.881-63.194Z" transform="translate(-8637.083 18.977)" fill="#f46838"/>
          <path id="Path_485" data-name="Path 485" d="M9833.785,721.939l1.518-7.635h15.564v-1.8h14.984v-4.887h40.779l1.345,4.887h22.569v2.957l29.9-1.156,5.113,2.324H9969v3.288l-133.7,2.023Z" transform="translate(-8612.191 -59.389)" fill="none" stroke="#f46838" stroke-width="1"/>
          <path id="Path_488" data-name="Path 488" d="M9779.485,462.757v66.811h4.421V460.211l6-4.294v73.651h4.778V454.743l4.387-3.137v77.961h3.426l-.968-81.855,6.411-3.909v85.763h3.937l-.795-90.914,5.392-3.469v98.1l3.667,1.885-1.123-102.775,3.254-1.266.764,105.263,4.887,1.925-1.693-112.18,5.747-5.6v119.8h3.409l-.169-125.28,2.77-4.5.319,132.228,2.854,1.1-1.053-136.565,3.594-5.082,1.135,142.643,2.982,1.342-1.395-146.762,2.822-5.275,1.8,154.792H9854l-1.532-160.759,1.808-2.333,2.186,164.2-44.581-16.8,1.188-2.345-37.13-.724V464.044Z" transform="translate(-8597.243 23.755)" fill="none" stroke="#f46737" stroke-width="0.5"/>
          <path id="Path_489" data-name="Path 489" d="M9897.662,447.212l9.036,24.462h4.965l-1.06-7.2-6.672-17.265Z" transform="translate(-8628.698 7.905)" fill="#f46838"/>
          <path id="Path_491" data-name="Path 491" d="M9612.533,553.746l-18.238-3.525-4.047,3.525-6.721-3.525-43.243,3.525-42.835-10.993-34.762-1.324-13.409,4.957-51.29-19.771-39.432,6.216-97.79,3.3-21.434,14.087-78.886-39.562-15.506,3.242-13.34-3.242-11.836-5.982-32.342-5.284L9055.18,493.1l-69.943,9.513-80.078,33.552-55.6,15.2-48.8,19.807-25-4.008-76.705-27.15-61.963-8.564-59.256,5.943-18.693,4.913-14.211,4.465-47.254-15.321h-13.73l-20.386,1.906-7.069,4.037-10.875-4.037h-11.852l-67.895-26.688h-12.924l-51.283,5.126L8276,509.284l-24.469,2.512-63.689,25.6V682.9l298.739-10.912,180.113-8.553,366.058,12.006,53.4-4.851,147.4,4.851,18.309-7.921,98.4-1.422,15.651,4.1,246.616-4.1Z" transform="translate(-8186.846 -3.954)" fill="none" stroke="#f46838" stroke-width="1"/>
          <path id="Path_492" data-name="Path 492" d="M9899.418,649.656h16.938l-8.783-9.058Z" transform="translate(-8629.151 -42.07)" fill="none" stroke="#f46838" stroke-width="1"/>
          <path id="Path_493" data-name="Path 493" d="M9901.284,657.56l6.526,7.283,7.223-8.437Z" transform="translate(-8629.635 -46.155)" fill="none" stroke="#f46838" stroke-width="1"/>
          <path id="Path_494" data-name="Path 494" d="M9903.427,688.227l5.515-7.3,5.122,7.3Z" transform="translate(-8630.188 -52.492)" fill="none" stroke="#f46838" stroke-width="1"/>
          <path id="Path_495" data-name="Path 495" d="M9897.668,664.643l6.69,6.912-6.69,6.43Z" transform="translate(-8628.7 -48.284)" fill="none" stroke="#f46838" stroke-width="1"/>
          <path id="Path_496" data-name="Path 496" d="M9914.777,670.179l7.213-9.927v16.826Z" transform="translate(-8633.121 -47.149)" fill="none" stroke="#f46838" stroke-width="1"/>
          <path id="Path_497" data-name="Path 497" d="M9895.933,696.85l2.294-2.271h16.179l1.478,2.271v4.682l-24.93,1.331Z" transform="translate(-8626.965 -56.02)" fill="none" stroke="#f46838" stroke-width="1"/>
          <path id="Path_500" data-name="Path 500" d="M10075.32,652.752l-37.926-8.47v-3.693l2.252-1.276v-2.137h-25.224v3.413l-3.681,2.316-4.229-1.2-2.694-4.53h-13.953l-2.379-5.948-2.83,2.541v5.544h-5.984v4.97l2.077,3.034,3.907-4.411,5.209-3.593h11.894l5.816,4.97h6.848l2.539-1.377v-3.593h17.428v6.258l38.42,9.828Z" transform="translate(-8649.633 -39.649)" fill="#f46838"/>
          <line id="Line_1328" data-name="Line 1328" y2="5.191" transform="translate(1274.034 484.252)" fill="none" stroke="#f46838" stroke-linecap="round" stroke-width="1"/>
          <line id="Line_1329" data-name="Line 1329" y2="5.191" transform="translate(1276.259 484.252)" fill="none" stroke="#f46838" stroke-linecap="round" stroke-width="1"/>
          <line id="Line_1330" data-name="Line 1330" y2="5.191" transform="translate(1278.484 484.252)" fill="none" stroke="#f46838" stroke-linecap="round" stroke-width="1"/>
          <line id="Line_1331" data-name="Line 1331" y2="5.191" transform="translate(1278.484 484.252)" fill="none" stroke="#f46838" stroke-linecap="round" stroke-width="1"/>
          <line id="Line_1332" data-name="Line 1332" y2="5.191" transform="translate(1280.709 484.252)" fill="none" stroke="#f46838" stroke-linecap="round" stroke-width="1"/>
          <line id="Line_1333" data-name="Line 1333" y2="5.191" transform="translate(1280.709 484.252)" fill="none" stroke="#f46838" stroke-linecap="round" stroke-width="1"/>
          <line id="Line_1334" data-name="Line 1334" y2="5.191" transform="translate(1282.933 484.252)" fill="none" stroke="#f46838" stroke-linecap="round" stroke-width="1"/>
          <line id="Line_1335" data-name="Line 1335" y2="5.191" transform="translate(1285.158 484.252)" fill="none" stroke="#f46838" stroke-linecap="round" stroke-width="1"/>
          <line id="Line_1336" data-name="Line 1336" y2="5.191" transform="translate(1287.383 484.252)" fill="none" stroke="#f46838" stroke-linecap="round" stroke-width="1"/>
          <line id="Line_1337" data-name="Line 1337" y2="5.191" transform="translate(1279.225 528.005)" fill="none" stroke="#f46838" stroke-linecap="round" stroke-width="1"/>
          <line id="Line_1338" data-name="Line 1338" y2="5.191" transform="translate(1285.9 528.005)" fill="none" stroke="#f46838" stroke-linecap="round" stroke-width="1"/>
          <line id="Line_1339" data-name="Line 1339" y2="5.191" transform="translate(1281.45 528.005)" fill="none" stroke="#f46838" stroke-linecap="round" stroke-width="1"/>
          <line id="Line_1340" data-name="Line 1340" y2="5.191" transform="translate(1285.9 528.005)" fill="none" stroke="#f46838" stroke-linecap="round" stroke-width="1"/>
          <line id="Line_1341" data-name="Line 1341" y2="5.191" transform="translate(1283.675 528.005)" fill="none" stroke="#f46838" stroke-linecap="round" stroke-width="1"/>
          <line id="Line_1342" data-name="Line 1342" y2="5.191" transform="translate(1277.001 528.005)" fill="none" stroke="#f46838" stroke-linecap="round" stroke-width="1"/>
          <line id="Line_1343" data-name="Line 1343" y1="0.742" x2="26.697" transform="translate(1297.023 508.724)" fill="none" stroke="#f46838" stroke-linecap="round" stroke-width="4"/>
          <path id="Path_507" data-name="Path 507" d="M9938.034,419.163l1.688,147.865h4.092l-2.724-137.565,2.724,5.811,2.039,134.929h2.625l-1.351-122.479,3.1,6.778V571.808h3.229V464.645l2.9,6.966-1.012,101.309h2.484l1.173-92.682,1.961,7.753v84.929l1.152,1.772,1.3-81,1.943,5.9-1.943,77.763,1.943,4.023,1.866-77.86,2.439,7.35-2.439,72.331,2.439,1.452,1.452-69.94,2.16,8.938-2.16,61h3.678l1.2-58.17,1.624,6.392v48.5l1.256,1.821v-44.58l2.012,5.889v36.87h2.386v-32.3l1.472,4.341v27.957h1.711V556.115l1.391,5.061v20.2h2.339V570.2l1.441,2.716V583.2H9980.9l-7.611,3.926h-4.65l-1.4-2.474-6.266-7.3-22.936-7.152-1.827-7.38-1.05-146.543Z" transform="translate(-8638.388 15.898)" fill="none" stroke="#f46838" stroke-width="0.5"/>
          <g id="Group_227" data-name="Group 227">
            <path id="Path_341-2" data-name="Path 341" d="M549.511,0S495.194,40.121,417.536,83.773c-39.579,22.248-86.328,43.725-132.625,64.718-52.478,23.8-107.969,41.583-154.637,57.6C54.816,231.99,0,249.171,0,249.171" transform="translate(0 0)" fill="none" stroke="#f46838" stroke-linecap="round" stroke-width="5"/>
            <path id="Path_342-2" data-name="Path 342" d="M473.87,0s-46.84,34.649-113.808,72.348C325.93,91.562,285.617,110.11,245.693,128.24c-45.254,20.55-93.107,35.912-133.351,49.744C47.271,200.35,0,215.188,0,215.188" transform="translate(0 21.506)" fill="none" stroke="#f46838" stroke-linecap="round" stroke-width="5"/>
            <path id="Path_345-2" data-name="Path 345" d="M0,0,26.267,73.716l42.7,119.836" transform="translate(1288.866 407.869)" fill="none" stroke="#f46838" stroke-width="3"/>
            <path id="Path_346-2" data-name="Path 346" d="M0,0,12.176,29.544,31.97,77.572" transform="translate(1296.373 523.849)" fill="none" stroke="#f46838" stroke-width="4"/>
            <line id="Line_1142-2" data-name="Line 1142" x2="11.865" y2="418.993" transform="translate(463.487 31.888)" fill="none" stroke="#f46838" stroke-linecap="round" stroke-width="2"/>
            <line id="Line_1143-2" data-name="Line 1143" y2="14.09" transform="translate(541.353 111.237)" fill="none" stroke="#f46838" stroke-linecap="round" stroke-width="2"/>
            <line id="Line_1144-2" data-name="Line 1144" x2="8.157" y2="398.97" transform="translate(436.791 48.944)" fill="none" stroke="#f46838" stroke-linecap="round" stroke-width="2"/>
            <line id="Line_1145-2" data-name="Line 1145" x2="9.641" y2="356.7" transform="translate(407.869 89.731)" fill="none" stroke="#f46838" stroke-linecap="round" stroke-width="2"/>
            <line id="Line_1146-2" data-name="Line 1146" x2="9.641" y2="335.936" transform="translate(378.206 106.046)" fill="none" stroke="#f46838" stroke-linecap="round" stroke-width="2"/>
            <line id="Line_1147-2" data-name="Line 1147" x2="7.416" y2="298.857" transform="translate(317.396 134.968)" fill="none" stroke="#f46838" stroke-linecap="round" stroke-width="2"/>
            <line id="Line_1148-2" data-name="Line 1148" x2="8.899" y2="316.655" transform="translate(348.543 120.878)" fill="none" stroke="#f46838" stroke-linecap="round" stroke-width="2"/>
            <line id="Line_1149-2" data-name="Line 1149" x2="8.157" y2="328.52" transform="translate(332.969 109.012)" fill="none" stroke="#f46838" stroke-linecap="round" stroke-width="1"/>
            <line id="Line_1150-2" data-name="Line 1150" x2="7.416" y2="312.947" transform="translate(302.565 124.585)" fill="none" stroke="#f46838" stroke-linecap="round" stroke-width="1"/>
            <line id="Line_1151-2" data-name="Line 1151" x2="6.674" y2="290.699" transform="translate(271.418 138.675)" fill="none" stroke="#f46838" stroke-linecap="round" stroke-width="1"/>
            <line id="Line_1152-2" data-name="Line 1152" x2="6.674" y2="282.542" transform="translate(283.284 149.058)" fill="none" stroke="#f46838" stroke-linecap="round" stroke-width="2"/>
            <line id="Line_1153-2" data-name="Line 1153" x2="6.674" y2="387.105" transform="translate(608.096 77.124)" fill="none" stroke="#f46838" stroke-linecap="round" stroke-width="1"/>
            <line id="Line_1154-2" data-name="Line 1154" x2="8.157" y2="347.801" transform="translate(361.149 94.181)" fill="none" stroke="#f46838" stroke-linecap="round" stroke-width="1"/>
            <line id="Line_1155-2" data-name="Line 1155" x2="9.641" y2="364.857" transform="translate(390.071 77.124)" fill="none" stroke="#f46838" stroke-linecap="round" stroke-width="1"/>
            <line id="Line_1156-2" data-name="Line 1156" x2="5.191" y2="273.643" transform="translate(238.789 152.765)" fill="none" stroke="#f46838" stroke-linecap="round" stroke-width="1"/>
            <line id="Line_1157-2" data-name="Line 1157" x2="5.933" y2="236.564" transform="translate(203.934 180.946)" fill="none" stroke="#f46838" stroke-linecap="round" stroke-width="2"/>
            <line id="Line_1158-2" data-name="Line 1158" x2="5.933" y2="231.373" transform="translate(129.035 208.384)" fill="none" stroke="#f46838" stroke-linecap="round" stroke-width="2"/>
            <line id="Line_1159-2" data-name="Line 1159" x2="5.933" y2="231.373" transform="translate(171.305 192.069)" fill="none" stroke="#f46838" stroke-linecap="round" stroke-width="2"/>
            <line id="Line_1160-2" data-name="Line 1160" x2="5.933" y2="213.575" transform="translate(90.473 220.249)" fill="none" stroke="#f46838" stroke-linecap="round" stroke-width="2"/>
            <line id="Line_1161-2" data-name="Line 1161" x2="5.933" y2="197.26" transform="translate(48.203 234.339)" fill="none" stroke="#f46838" stroke-linecap="round" stroke-width="2"/>
            <path id="Path_347-2" data-name="Path 347" d="M0,0S264.53,397.51,466.077,473.974s260.671-77.229,260.671-77.229" transform="translate(562.118 11.124)" fill="none" stroke="#f46838" stroke-width="5"/>
            <path id="Path_348-2" data-name="Path 348" d="M0,0S256.686,364.416,465.29,445.478s283.615-86.809,283.615-86.809" transform="translate(506.59 46.125)" fill="none" stroke="#f46838" stroke-width="5"/>
            <line id="Line_1162-2" data-name="Line 1162" x2="5.933" y2="252.137" transform="translate(209.867 165.372)" fill="none" stroke="#f46838" stroke-linecap="round" stroke-width="1"/>
            <line id="Line_1164-2" data-name="Line 1164" x2="7.416" y2="370.048" transform="translate(627.377 100.855)" fill="none" stroke="#f46838" stroke-linecap="round" stroke-width="1"/>
            <line id="Line_1165-2" data-name="Line 1165" x2="6.674" y2="348.543" transform="translate(646.658 124.585)" fill="none" stroke="#f46838" stroke-linecap="round" stroke-width="1"/>
            <path id="Path_349-2" data-name="Path 349" d="M0,0,8.611,323.385" transform="translate(665.939 152.765)" fill="none" stroke="#f46838" stroke-linecap="round" stroke-width="1"/>
            <path id="Path_350-2" data-name="Path 350" d="M0,0,11.642,297.523" transform="translate(685.22 180.204)" fill="none" stroke="#f46838" stroke-linecap="round" stroke-width="1"/>
            <line id="Line_1229-2" data-name="Line 1229" y2="14.09" transform="translate(547.286 110.495)" fill="none" stroke="#f46838" stroke-linecap="round" stroke-width="2"/>
          </g>
          <path id="Path_534" data-name="Path 534" d="M9825.432,591.891l36.522,17.035,38.616,6.9,37.363,12.456-7.916-15.777L9906,605.82l-36.924-7.34-43.641-16.638Z" transform="translate(-8610.033 -26.887)" fill="#f46838" stroke="#f46838" stroke-width="1"/>
          <path id="Path_535" data-name="Path 535" d="M9768.66,596.516l25.555,12.549,45.658,12.352,35.146,6.666,29.645,7.928,15.974-4.742-30.785-9.852-3.131,6.666-32.783-6.666-49.6-15.833-20.711-5.912Z" transform="translate(-8595.362 -30.679)" fill="none" stroke="#f46838" stroke-width="1"/>
          <path id="Path_536" data-name="Path 536" d="M9878.211,363.161v4.309l-1.517,2.5,1.517,22.946-1.517,1.807,1.517,144.283,2.29,70.026-2.29,1.673v6.511h8.859v-8.184l-1.789-1.093V572.932h-2.724V540.371h2.724l-2.787-145.647V377.916l2.41-2v-5.942l-1.147-2.5-1.263-3.09v-2.814Z" transform="translate(-8623.28 30.037)" fill="none" stroke="#f46838" stroke-width="1"/>
          <path id="Path_537" data-name="Path 537" d="M9888.916,622l4.177-4.459v-3.994l-2.027-20.844,2.027-2.677V578.478l-2.027-4.56V545.245l2.027-29.928,7.918-3.314-1.715-10.24-6.2-2.337h-3.922V472.071l3.922-3.431,3.239-2.228v-9.618h-5.267l-1.895-3.42-1.764-18.491,3.658-4.282,3.535-9.244-1.508-4.534-6.951-2.911,1.266-25.065v-8.782l-3.572,3.127,2.886,162.055h-2.507v33.233h2.507v33.857l2.2,1.21Z" transform="translate(-8625.125 25.257)" fill="#f46838"/>
          <path id="Path_538" data-name="Path 538" d="M9899.042,415.5h14.529l.947-3.773h1.824V395.38l-1.824-2.54V377.161l-.947-1.611.947-2.765v-4.3l4.487-2.905,3.766.9v6.309l2.105,2.765-.841,3.83h-1.265l2.105,3.021v5.442l-2.105,2.126-1.534,2.87v53.436l1.534,68.4-2.933,1.391,1.4.756,1.534,28.189-1.534,27.055,1.534,3.677,1.152,34.633v6.427h-7.392l1.071-32.6v-12.14l-1.834-49.092-2.279-9.129-17.417-.988v-1.266l7.333-3.446-1.8-10.707-6.571-2.113h18.535l.947-19.5-3.93-11.546h-14.516l2.969-1.825V453.1l-5.166-1.419H9908.7l5.821-2.911V428.356l-2.811-4.1-17.832,1.464Z" transform="translate(-8627.72 29)" fill="none" stroke="#f46838" stroke-width="1"/>
          <path id="Path_539" data-name="Path 539" d="M9931.406,404.363v15.743l1.5,1.926v34.385l1.6,2.009v39.856l1.273,54.983h4.98v4.28l2.595,1.017h-2.595l-3.316,1.5-1.664,20.883,1.664,37.64,3.316,5.684-1.621,6.275-5.8-3.833-1.1-40.415-1.118-4.793,1.118-25.288-1.118-29.551h-1.011l1.614-2.264-.881-63.194Z" transform="translate(-8637.083 18.977)" fill="#f46838"/>
          <path id="Path_540" data-name="Path 540" d="M9833.785,721.939l1.518-7.635h15.564v-1.8h14.984v-4.887h40.779l1.345,4.887h22.569v2.957l29.9-1.156,5.113,2.324H9969v3.288l-133.7,2.023Z" transform="translate(-8612.191 -59.389)" fill="none" stroke="#f46838" stroke-width="1"/>
          <path id="Path_543" data-name="Path 543" d="M9779.485,462.757v66.811h4.421V460.211l6-4.294v73.651h4.778V454.743l4.387-3.137v77.961h3.426l-.968-81.855,6.411-3.909v85.763h3.937l-.795-90.914,5.392-3.469v98.1l3.667,1.885-1.123-102.775,3.254-1.266.764,105.263,4.887,1.925-1.693-112.18,5.747-5.6v119.8h3.409l-.169-125.28,2.77-4.5.319,132.228,2.854,1.1-1.053-136.565,3.594-5.082,1.135,142.643,2.982,1.342-1.395-146.762,2.822-5.275,1.8,154.792H9854l-1.532-160.759,1.808-2.333,2.186,164.2-44.581-16.8,1.188-2.345-37.13-.724V464.044Z" transform="translate(-8597.243 23.755)" fill="none" stroke="#f46737" stroke-width="0.5"/>
          <path id="Path_544" data-name="Path 544" d="M9897.662,447.212l9.036,24.462h4.965l-1.06-7.2-6.672-17.265Z" transform="translate(-8628.698 7.905)" fill="#f46838"/>
          <path id="Path_546" data-name="Path 546" d="M9612.533,553.746l-18.238-3.525-4.047,3.525-6.721-3.525-43.243,3.525-42.835-10.993-34.762-1.324-13.409,4.957-51.29-19.771-39.432,6.216-97.79,3.3-21.434,14.087-78.886-39.562-15.506,3.242-13.34-3.242-11.836-5.982-32.342-5.284L9055.18,493.1l-69.943,9.513-80.078,33.552-55.6,15.2-48.8,19.807-25-4.008-76.705-27.15-61.963-8.564-59.256,5.943-18.693,4.913-14.211,4.465-47.254-15.321h-13.73l-20.386,1.906-7.069,4.037-10.875-4.037h-11.852l-67.895-26.688h-12.924l-51.283,5.126L8276,509.284l-24.469,2.512-63.689,25.6V682.9l298.739-10.912,180.113-8.553,366.058,12.006,53.4-4.851,147.4,4.851,18.309-7.921,98.4-1.422,15.651,4.1,246.616-4.1Z" transform="translate(-8186.846 -3.954)" fill="none" stroke="#f46838" stroke-width="1"/>
          <path id="Path_547" data-name="Path 547" d="M9899.418,649.656h16.938l-8.783-9.058Z" transform="translate(-8629.151 -42.07)" fill="none" stroke="#f46838" stroke-width="1"/>
          <path id="Path_548" data-name="Path 548" d="M9901.284,657.56l6.526,7.283,7.223-8.437Z" transform="translate(-8629.635 -46.155)" fill="none" stroke="#f46838" stroke-width="1"/>
          <path id="Path_549" data-name="Path 549" d="M9903.427,688.227l5.515-7.3,5.122,7.3Z" transform="translate(-8630.188 -52.492)" fill="none" stroke="#f46838" stroke-width="1"/>
          <path id="Path_550" data-name="Path 550" d="M9897.668,664.643l6.69,6.912-6.69,6.43Z" transform="translate(-8628.7 -48.284)" fill="none" stroke="#f46838" stroke-width="1"/>
          <path id="Path_551" data-name="Path 551" d="M9914.777,670.179l7.213-9.927v16.826Z" transform="translate(-8633.121 -47.149)" fill="none" stroke="#f46838" stroke-width="1"/>
          <path id="Path_552" data-name="Path 552" d="M9895.933,696.85l2.294-2.271h16.179l1.478,2.271v4.682l-24.93,1.331Z" transform="translate(-8626.965 -56.02)" fill="none" stroke="#f46838" stroke-width="1"/>
          <path id="Path_555" data-name="Path 555" d="M10075.32,652.752l-37.926-8.47v-3.693l2.252-1.276v-2.137h-25.224v3.413l-3.681,2.316-4.229-1.2-2.694-4.53h-13.953l-2.379-5.948-2.83,2.541v5.544h-5.984v4.97l2.077,3.034,3.907-4.411,5.209-3.593h11.894l5.816,4.97h6.848l2.539-1.377v-3.593h17.428v6.258l38.42,9.828Z" transform="translate(-8649.633 -39.649)" fill="#f46838"/>
          <line id="Line_1386" data-name="Line 1386" y2="5.191" transform="translate(1274.034 484.252)" fill="none" stroke="#f46838" stroke-linecap="round" stroke-width="1"/>
          <line id="Line_1387" data-name="Line 1387" y2="5.191" transform="translate(1276.259 484.252)" fill="none" stroke="#f46838" stroke-linecap="round" stroke-width="1"/>
          <line id="Line_1388" data-name="Line 1388" y2="5.191" transform="translate(1278.484 484.252)" fill="none" stroke="#f46838" stroke-linecap="round" stroke-width="1"/>
          <line id="Line_1389" data-name="Line 1389" y2="5.191" transform="translate(1278.484 484.252)" fill="none" stroke="#f46838" stroke-linecap="round" stroke-width="1"/>
          <line id="Line_1390" data-name="Line 1390" y2="5.191" transform="translate(1280.709 484.252)" fill="none" stroke="#f46838" stroke-linecap="round" stroke-width="1"/>
          <line id="Line_1391" data-name="Line 1391" y2="5.191" transform="translate(1280.709 484.252)" fill="none" stroke="#f46838" stroke-linecap="round" stroke-width="1"/>
          <line id="Line_1392" data-name="Line 1392" y2="5.191" transform="translate(1282.933 484.252)" fill="none" stroke="#f46838" stroke-linecap="round" stroke-width="1"/>
          <line id="Line_1393" data-name="Line 1393" y2="5.191" transform="translate(1285.158 484.252)" fill="none" stroke="#f46838" stroke-linecap="round" stroke-width="1"/>
          <line id="Line_1394" data-name="Line 1394" y2="5.191" transform="translate(1287.383 484.252)" fill="none" stroke="#f46838" stroke-linecap="round" stroke-width="1"/>
          <line id="Line_1395" data-name="Line 1395" y2="5.191" transform="translate(1279.225 528.005)" fill="none" stroke="#f46838" stroke-linecap="round" stroke-width="1"/>
          <line id="Line_1396" data-name="Line 1396" y2="5.191" transform="translate(1285.9 528.005)" fill="none" stroke="#f46838" stroke-linecap="round" stroke-width="1"/>
          <line id="Line_1397" data-name="Line 1397" y2="5.191" transform="translate(1281.45 528.005)" fill="none" stroke="#f46838" stroke-linecap="round" stroke-width="1"/>
          <line id="Line_1398" data-name="Line 1398" y2="5.191" transform="translate(1285.9 528.005)" fill="none" stroke="#f46838" stroke-linecap="round" stroke-width="1"/>
          <line id="Line_1399" data-name="Line 1399" y2="5.191" transform="translate(1283.675 528.005)" fill="none" stroke="#f46838" stroke-linecap="round" stroke-width="1"/>
          <line id="Line_1400" data-name="Line 1400" y2="5.191" transform="translate(1277.001 528.005)" fill="none" stroke="#f46838" stroke-linecap="round" stroke-width="1"/>
          <line id="Line_1401" data-name="Line 1401" y1="0.742" x2="26.697" transform="translate(1297.023 508.724)" fill="none" stroke="#f46838" stroke-linecap="round" stroke-width="4"/>
          <path id="Path_562" data-name="Path 562" d="M9938.034,419.163l1.688,147.865h4.092l-2.724-137.565,2.724,5.811,2.039,134.929h2.625l-1.351-122.479,3.1,6.778V571.808h3.229V464.645l2.9,6.966-1.012,101.309h2.484l1.173-92.682,1.961,7.753v84.929l1.152,1.772,1.3-81,1.943,5.9-1.943,77.763,1.943,4.023,1.866-77.86,2.439,7.35-2.439,72.331,2.439,1.452,1.452-69.94,2.16,8.938-2.16,61h3.678l1.2-58.17,1.624,6.392v48.5l1.256,1.821v-44.58l2.012,5.889v36.87h2.386v-32.3l1.472,4.341v27.957h1.711V556.115l1.391,5.061v20.2h2.339V570.2l1.441,2.716V583.2H9980.9l-7.611,3.926h-4.65l-1.4-2.474-6.266-7.3-22.936-7.152-1.827-7.38-1.05-146.543Z" transform="translate(-8638.388 15.898)" fill="none" stroke="#f46838" stroke-width="0.5"/>
        </g>
      </g>
    </g>
  </g>
</svg>
